<?xml version="1.0" standalone="no"?>
<!DOCTYPE svg PUBLIC "-//W3C//DTD SVG 20010904//EN"
 "http://www.w3.org/TR/2001/REC-SVG-20010904/DTD/svg10.dtd">
<svg version="1.0" xmlns="http://www.w3.org/2000/svg"
 width="400.000000pt" height="400.000000pt" viewBox="0 0 400.000000 400.000000"
 preserveAspectRatio="xMidYMid meet">
<metadata>
Created by potrace 1.14, written by Peter Selinger 2001-2017
</metadata>
<g transform="translate(0.000000,400.000000) scale(0.100000,-0.100000)"
fill="#000000" stroke="none">
<path d="M0 2000 l0 -2000 2000 0 2000 0 0 2000 0 2000 -2000 0 -2000 0 0
-2000z m3456 341 c105 -22 216 -55 297 -90 l47 -20 0 -176 c0 -96 -2 -175 -4
-175 -3 0 -40 25 -82 55 -304 218 -695 248 -894 69 -123 -112 -131 -342 -14
-457 67 -66 132 -92 404 -162 266 -69 299 -79 380 -120 171 -87 268 -227 289
-421 23 -202 -37 -375 -178 -514 -126 -125 -261 -187 -453 -211 -109 -13 -300
-6 -420 17 -104 20 -244 64 -342 109 l-76 34 0 181 c0 99 4 180 8 180 5 0 26
-15 48 -33 173 -147 430 -247 635 -247 240 0 401 83 458 235 55 149 23 303
-80 385 -65 51 -123 72 -384 137 -121 30 -254 68 -295 84 -230 91 -356 259
-376 498 -27 319 205 587 567 656 103 20 333 13 465 -14z m-1741 -39 c243 -54
410 -194 486 -408 29 -82 38 -291 15 -385 -33 -142 -113 -273 -219 -360 -74
-60 -216 -131 -308 -153 -80 -19 -272 -35 -426 -36 l-113 0 0 -405 0 -405
-145 0 -145 0 0 1091 0 1091 383 -5 c335 -4 393 -7 472 -25z"/>
<path d="M1150 1645 l0 -438 203 6 c220 6 300 19 375 63 89 52 156 142 187
248 24 82 17 262 -13 328 -42 94 -123 161 -244 200 -53 17 -98 21 -285 25
l-223 5 0 -437z"/>
</g>
</svg>
